<svg xmlns="http://www.w3.org/2000/svg" width="864" height="1184" viewBox="0 0 864 1184" version="1.1">
	<path d="M 370.358 122.363 C 358.779 126.712, 345.371 138.169, 339.989 148.315 C 338.145 151.790, 336.866 152.993, 334.540 153.437 C 325.398 155.184, 312.990 163.569, 305.569 173.016 C 300.777 179.116, 294.441 191.545, 293.354 196.980 C 293.022 198.641, 292.131 200, 291.375 200 C 287.176 200, 293.028 176.847, 299.863 166.413 C 304.512 159.317, 308.796 155.168, 315.500 151.268 C 318.250 149.669, 320.500 147.716, 320.500 146.930 C 320.500 144.558, 313.170 145.792, 306.666 149.259 C 295.307 155.313, 284.833 170.922, 281.396 186.920 L 279.707 194.776 276.610 193.888 C 274.907 193.400, 271.011 193, 267.953 193 C 251.142 193, 239.623 210.344, 245.456 226.874 C 246.256 229.143, 246.688 231, 246.416 231 C 246.143 231, 244.135 230.089, 241.952 228.976 C 239.770 227.862, 234.725 225.782, 230.742 224.353 C 226.759 222.924, 221.733 220.860, 219.573 219.767 C 213.865 216.877, 205.159 208.248, 202.341 202.686 C 199.368 196.819, 197.444 197.029, 197.648 203.196 C 198.038 214.984, 209.622 226.386, 228.355 233.416 C 238.179 237.104, 244.662 240.860, 247.328 244.411 C 251.453 249.904, 251.375 250.766, 246.689 251.507 C 217.244 256.162, 193.020 272.254, 182.014 294.473 C 178.592 301.379, 177.701 304.278, 177.612 308.785 C 177.523 313.254, 177.840 314.507, 179.122 314.767 C 180.237 314.994, 181.280 313.753, 182.458 310.799 C 186.765 299.998, 197.427 286.218, 207.495 278.438 C 217.058 271.049, 237.754 262, 245.090 262 C 245.805 262, 242.590 264.564, 237.945 267.697 C 225.536 276.068, 207.699 294.226, 199.621 306.710 C 186.487 327.007, 182.502 337.146, 179.008 359.148 C 173.278 395.227, 170.640 403.789, 162.414 413.007 C 157.964 417.995, 157.204 419.380, 157.891 421.251 C 159.241 424.932, 163.468 424.700, 169.377 420.620 C 173.822 417.551, 177.440 413.666, 183.462 405.500 C 184.273 404.400, 184.951 404.033, 184.968 404.685 C 185.046 407.567, 181.885 420.205, 179.499 426.552 C 173.519 442.461, 171.864 447.952, 170.473 456.500 C 168.663 467.619, 168.638 482.089, 170.412 492 C 172.124 501.564, 178.116 521.616, 182.107 531.137 C 185.080 538.229, 185.201 539.088, 185.383 554.500 C 185.559 569.323, 185.840 571.530, 189.202 584.500 C 194.309 604.199, 196.626 616.284, 198.502 633 C 200.499 650.810, 202.473 660.743, 205.489 668.165 C 207.881 674.052, 212.662 681.644, 215.416 683.930 C 217.923 686.011, 217.392 686.589, 210.750 689.007 C 203.607 691.606, 151.403 717.903, 133.630 727.854 C 106.255 743.181, 85.833 764.522, 71.771 792.500 C 57.686 820.520, 52 829.403, 35.519 849.134 C 24.447 862.390, 18.831 871.490, 15.357 881.807 C 12.970 888.896, 12.803 890.503, 13.221 902.281 L 13.676 915.061 6.838 918.655 L -0 922.248 -0 1053.124 L 0 1184 92.615 1184 L 185.230 1184 183.440 1181.250 C 180.058 1176.056, 165.696 1156.512, 160.113 1149.509 C 147.318 1133.457, 135.675 1120.718, 119.079 1104.612 C 81.534 1068.174, 76.651 1062.692, 59.913 1038.180 L 51.500 1025.861 51.500 1018.605 C 51.500 1007.001, 54.715 1001.349, 92.794 946 C 115.055 913.643, 120.646 903.739, 147.834 848.500 C 167.407 808.731, 176.481 793.462, 195.076 769 C 212.271 746.380, 235.109 721.730, 241.621 718.763 C 243.647 717.840, 244.323 717.898, 245.056 719.057 C 247.365 722.706, 245.946 725.233, 235.071 736.837 C 213.568 759.784, 192.137 787.758, 178.771 810.327 C 174.919 816.832, 163.545 838.882, 153.497 859.327 C 127.093 913.048, 127.400 912.532, 83.174 977.625 C 68.588 999.094, 61.561 1011.313, 60.507 1017.042 C 59.959 1020.024, 60.392 1021.369, 63.247 1025.542 C 84.452 1056.537, 89.857 1062.944, 113.421 1085.012 C 145.557 1115.108, 169.612 1142.982, 190.864 1174.750 L 197.052 1184 248.986 1184 L 300.920 1184 294.035 1163.750 C 286.945 1142.894, 278.888 1122.916, 267.723 1098.500 C 252.265 1064.696, 248.782 1052.762, 248.753 1033.500 C 248.717 1009.119, 249.330 955.996, 249.644 956.311 C 249.817 956.483, 251.757 965.371, 253.956 976.062 C 262.989 1019.980, 275.757 1064.773, 300.187 1138.250 L 315.399 1184 322.699 1184 C 326.715 1184, 330 1183.835, 330 1183.632 C 330 1183.430, 324.584 1167.118, 317.964 1147.382 C 304.002 1105.756, 290.894 1063.918, 284.009 1039 C 276.212 1010.783, 269 982.359, 269 979.845 C 269 978.312, 270.924 980.938, 274.616 987.507 C 290.460 1015.701, 311.140 1041.719, 368.002 1105 C 411.473 1153.377, 417.644 1160.666, 426.638 1174.250 L 433.094 1184 438.547 1184 C 441.546 1184, 444 1183.770, 444 1183.489 C 444 1183.208, 441.525 1178.978, 438.501 1174.089 C 428.559 1158.017, 424.474 1153.175, 359.507 1080.464 C 303.362 1017.626, 281.953 986.934, 265.581 945.812 C 257.142 924.617, 255.779 910.514, 258.907 876.753 C 261.910 844.345, 262.296 831.247, 261.200 799 C 260.667 783.325, 260.376 770.340, 260.554 770.145 C 260.732 769.949, 263.425 774.869, 266.539 781.078 C 273.450 794.857, 276.718 800.113, 293.858 825 C 307.630 844.996, 313.945 853.502, 321.937 862.820 C 329.486 871.622, 363.493 898.175, 374 903.473 C 387.232 910.144, 402.189 913.574, 422 914.479 C 435.661 915.103, 437.397 914.962, 452 912.036 C 476.043 907.220, 481.035 905.195, 496 894.188 C 509.823 884.020, 518.606 874.949, 532.976 856 C 536.521 851.325, 542.139 844.297, 545.461 840.383 C 548.782 836.469, 554.874 828.517, 558.997 822.714 C 563.121 816.910, 566.607 812.274, 566.744 812.411 C 566.882 812.548, 566.574 815.999, 566.060 820.080 C 562.579 847.745, 562.277 898.186, 565.470 918.644 C 566.973 928.275, 566.952 929.439, 565.052 941.644 C 562.191 960.020, 561.328 964.217, 557.990 976.020 C 550.242 1003.415, 541.379 1026.270, 520.069 1073.811 C 505.201 1106.981, 494.097 1133.490, 489.830 1146 C 487.486 1152.874, 479 1182.387, 479 1183.667 C 479 1183.850, 481.475 1184, 484.500 1184 C 488.409 1184, 490 1183.615, 490 1182.670 C 490 1179.837, 497.033 1155.878, 501.403 1143.820 C 505.748 1131.834, 516.962 1104.852, 523.978 1089.500 C 538.461 1057.813, 551.408 1026.829, 559.497 1004.500 C 564.531 990.606, 573 958.920, 573 953.982 C 573 952.342, 573.395 951, 573.878 951 C 575.218 951, 576.302 989.599, 575.555 1010.729 C 573.807 1060.177, 569.810 1110.184, 563.483 1161.734 C 562.117 1172.863, 561 1182.425, 561 1182.984 C 561 1183.573, 563.888 1184, 567.878 1184 L 574.757 1184 575.913 1176.250 C 579.185 1154.312, 585.052 1094.678, 587.202 1061.500 C 588.923 1034.955, 588.934 951.409, 587.219 932 C 584.973 906.574, 579.516 877.050, 574.913 865.414 C 573.422 861.646, 572.979 858.538, 573.201 853.414 L 573.500 846.500 580.584 857 C 588.306 868.447, 601.187 891.681, 605.530 902 C 624.957 948.148, 634.378 1020.829, 635.700 1134.750 L 636.271 1184 686.439 1184 L 736.606 1184 738.942 1174.250 C 744.780 1149.881, 751.773 1131.164, 773.057 1082.928 C 800.483 1020.773, 805.349 1005.933, 803.011 991.565 C 801.374 981.508, 799.444 978.958, 763.983 940 C 733.692 906.723, 730.581 902.227, 713.040 866.391 C 698.895 837.493, 697.309 834.885, 681.357 814.275 C 657.411 783.337, 638.198 763.596, 614.750 745.837 C 608.288 740.943, 603 736.272, 603 735.458 C 603 734.644, 604.516 728.920, 606.368 722.739 C 608.221 716.557, 610.513 708.265, 611.461 704.311 L 613.185 697.122 617.522 696.197 C 623.840 694.850, 630.520 690.561, 633.831 685.727 C 641.648 674.315, 644.389 666.049, 648.014 642.960 C 649.615 632.762, 652.497 618.018, 654.418 610.195 C 656.339 602.372, 658.672 591.140, 659.604 585.235 C 660.943 576.743, 662.211 572.620, 665.671 565.500 C 673.269 549.870, 674.545 536.198, 670.385 515 C 668.818 507.018, 666.069 486.694, 666.491 486.212 C 667.001 485.629, 673.309 496.210, 674.590 499.796 C 675.317 501.833, 675.932 505.397, 675.956 507.715 C 675.987 510.723, 676.517 512.206, 677.804 512.895 C 680.449 514.311, 682.023 512.844, 683.126 507.935 C 684.602 501.366, 683.385 496.688, 676.692 483.188 C 669.271 468.222, 668.673 463.781, 671.942 447.932 C 674.699 434.567, 675.633 419.176, 674.116 412.104 C 673.479 409.136, 673.152 406.515, 673.388 406.279 C 673.623 406.043, 675.614 407.040, 677.811 408.494 C 685.684 413.704, 696.327 415.506, 699.369 412.145 C 701.787 409.472, 700.422 407.188, 695.647 405.920 C 685.270 403.162, 675.624 395.111, 670.440 384.883 C 668.940 381.922, 665.721 374.775, 663.287 369 L 658.862 358.500 659.516 344.500 C 660.334 326.988, 658.788 318.456, 652.397 305.208 C 646.907 293.827, 638.108 284.121, 624.873 274.845 C 619.894 271.355, 615.153 268.033, 614.339 267.461 C 613.270 266.712, 615.728 266.386, 623.179 266.288 C 640.183 266.067, 648.216 262.609, 644.397 257.156 C 643.048 255.231, 642.217 254.991, 638.660 255.501 C 632.671 256.360, 619.262 253.696, 608.410 249.491 C 603.250 247.492, 598.795 245.477, 598.508 245.013 C 598.222 244.550, 599.558 243.200, 601.478 242.014 C 606.940 238.638, 614.802 229.145, 616.999 223.274 C 619.780 215.839, 620.549 208.011, 618.734 205.597 C 617.947 204.551, 616.838 203.982, 616.270 204.333 C 615.701 204.685, 613.744 208.691, 611.921 213.236 C 608.080 222.811, 600.723 231.088, 592.761 234.794 C 584.903 238.452, 585.451 238.723, 566.380 221.699 C 557.191 213.495, 548.838 208.303, 540.500 205.613 C 536.348 204.273, 534.906 203.120, 532 198.815 C 523.705 186.526, 509.866 175.462, 495.477 169.616 C 469.969 159.251, 437.151 163.272, 415.167 179.456 C 411.772 181.955, 408.771 184, 408.497 184 C 407.630 184, 407.971 178.648, 409.102 174.500 C 410.584 169.066, 419.056 160.864, 425.574 158.554 C 434.801 155.283, 435 155.157, 435 152.557 C 435 149.396, 432.832 148.251, 424.647 147.092 C 412.126 145.319, 397.333 148.809, 388.367 155.653 C 380.926 161.333, 382.174 158.679, 391.131 149.777 C 403.530 137.452, 415.022 132.560, 430.973 132.813 C 446.874 133.066, 456.731 137.557, 469.080 150.174 C 475.181 156.408, 477.969 158.631, 478.731 157.869 C 481.330 155.270, 475.530 144.513, 467.644 137.306 C 445.756 117.301, 408.626 118.481, 386.193 139.894 C 380.367 145.455, 372 157.050, 372 159.563 C 372 160.349, 369.475 159.521, 365.233 157.344 C 361.510 155.435, 356.550 153.615, 354.208 153.301 C 351.867 152.987, 349.741 152.390, 349.484 151.974 C 348.735 150.762, 357.663 139.878, 362.996 135.503 C 367.964 131.428, 375.388 127.211, 382.338 124.516 C 384.568 123.652, 386.002 122.499, 385.760 121.764 C 385.040 119.576, 376.941 119.891, 370.358 122.363 M 263.500 202.943 C 259.991 204.374, 256.039 209.141, 254.923 213.288 C 253.731 217.714, 254.802 223.836, 257.742 229.401 L 259.380 232.500 260.500 225.240 C 261.116 221.247, 262.108 217.492, 262.704 216.896 C 264.649 214.951, 267.462 216.422, 269.405 220.401 C 271.573 224.843, 277.989 231.426, 282.344 233.678 C 285.239 235.175, 285.274 235.162, 284.536 232.849 C 281.740 224.080, 280.083 216.216, 279.797 210.365 C 279.492 204.122, 279.268 203.527, 276.983 202.891 C 273.539 201.932, 265.906 201.961, 263.500 202.943 M 456.326 304.979 C 449.620 306.410, 446.387 308.570, 444.755 312.712 C 441.042 322.134, 441.640 330.686, 447.484 351.733 C 455.650 381.140, 454.073 400.796, 441.901 421.283 C 437.353 428.938, 429.063 438, 426.607 438 C 424.009 438, 423.688 435.889, 425.869 433.150 C 430.767 426.999, 436.110 416.879, 439.148 408 C 442.144 399.245, 442.403 397.481, 442.449 385.500 C 442.495 373.733, 442.144 371.070, 438.752 357.421 C 436.691 349.128, 434.718 339.453, 434.368 335.921 C 432.720 319.306, 430.247 330.064, 431.613 347.908 C 433.072 366.974, 432.538 384.125, 430.088 396.846 C 426.593 414.992, 421.346 426.549, 410.434 440.130 C 398.936 454.441, 373.788 468.824, 371.354 462.481 C 370.963 461.462, 373.889 457.926, 380.249 451.731 C 390.087 442.150, 398.432 430.794, 402.657 421.241 C 405.564 414.668, 408.591 402.070, 409.443 393 C 410.369 383.138, 407.071 354, 405.028 354 C 404.637 354, 403.745 355.913, 403.046 358.250 C 396.718 379.411, 376.321 399.547, 356.764 403.942 C 353.482 404.679, 352.512 404.512, 350.936 402.936 C 348.185 400.185, 349.341 398.588, 356.790 394.842 C 370.765 387.816, 383.663 371.014, 387.465 354.886 C 389.392 346.712, 389.406 333.820, 387.500 323 C 386.677 318.325, 386.002 313.038, 386.001 311.250 C 386 307.337, 385.368 307.273, 378.931 310.535 C 371.475 314.313, 366.622 319.223, 363.528 326.117 C 361.025 331.694, 360.809 333.096, 361.173 341.413 C 361.532 349.613, 361.983 351.402, 365.486 358.535 C 371.245 370.257, 371.088 369.669, 369.107 372.116 L 367.314 374.330 362.710 372.102 C 355.924 368.816, 345.099 358.299, 340.618 350.638 C 338.483 346.987, 336.641 344, 336.525 344 C 336.409 344, 336.901 347.038, 337.620 350.750 C 344.140 384.437, 329.240 420.742, 301.407 438.979 C 291.860 445.236, 288.445 446.614, 286.499 444.999 C 284.217 443.105, 284.671 441.442, 288.457 437.813 C 293.573 432.911, 298.571 423.871, 300.486 416.058 C 302.901 406.204, 302.218 404.627, 298.215 410.812 C 296.408 413.603, 293.204 417.254, 291.095 418.925 C 286.605 422.481, 275.857 427.745, 271.360 428.591 C 268.848 429.063, 267.665 430.214, 265.452 434.341 C 263.929 437.178, 259.213 444.900, 254.970 451.500 C 239.197 476.037, 237.938 480.053, 237.417 507.500 C 236.858 536.951, 236.341 544.957, 233.960 561 C 230.873 581.797, 231.495 598.047, 236.392 624.500 C 254.938 724.682, 254.205 721.897, 268.901 747.994 C 273.876 756.828, 278.293 763.269, 281.693 766.644 C 284.549 769.480, 288.920 774.975, 291.406 778.854 C 294.138 783.115, 297.940 787.410, 301.012 789.703 C 303.809 791.791, 306.960 794.962, 308.015 796.750 C 309.070 798.537, 310.735 800.010, 311.716 800.022 C 312.697 800.034, 315.490 800.947, 317.923 802.051 L 322.346 804.057 325.423 801.149 C 334.015 793.027, 339.845 794.291, 344.866 805.364 C 346.694 809.397, 349.065 812.676, 351.611 814.692 C 353.973 816.562, 356.654 820.137, 358.338 823.661 C 360.082 827.309, 362.379 830.334, 364.426 831.676 C 366.234 832.861, 369.088 836.266, 370.767 839.242 C 375.628 847.854, 380.414 850.034, 389.998 848.001 C 398.416 846.214, 402.185 847.222, 407.389 852.653 L 411.758 857.212 417.417 855.567 C 422.855 853.986, 423.387 854.006, 431.078 856.082 C 438.884 858.188, 439.196 858.197, 443.790 856.463 C 446.381 855.486, 450.972 853.302, 453.993 851.610 C 458.831 848.901, 460.441 848.531, 467.493 848.504 C 474.556 848.477, 475.953 848.155, 479.345 845.767 C 481.459 844.279, 484.655 842.531, 486.446 841.883 C 489.132 840.912, 491.091 838.410, 497.602 827.632 C 503.528 817.824, 506.519 813.877, 509.580 811.827 C 513.144 809.442, 513.823 808.362, 514.947 803.298 C 516.675 795.510, 518.352 792.511, 521.769 791.096 C 525.748 789.447, 528.436 790.734, 534.966 797.411 C 537.972 800.485, 540.754 803, 541.148 803 C 541.543 803, 542.150 802.103, 542.498 801.006 C 543.574 797.615, 545.982 796, 549.963 796 C 553.247 796, 553.875 795.633, 554.438 793.391 C 554.798 791.956, 557.492 788.468, 560.424 785.641 C 567.088 779.214, 583.358 756.500, 587.027 748.500 C 594.388 732.447, 607.041 685.922, 617.560 636.228 C 624.078 605.438, 624.407 602.222, 624.335 570 C 624.263 537.816, 623.456 528.590, 618.946 508.419 C 613.824 485.509, 613.014 476.873, 613.268 447.870 C 613.491 422.494, 613.410 421.217, 611.111 414 C 609.797 409.875, 608.295 405.669, 607.774 404.652 C 606.868 402.887, 606.759 402.899, 605.356 404.902 C 603.730 407.223, 599.792 407.694, 598.259 405.750 C 597.717 405.063, 596.997 401.125, 596.659 397 C 596.321 392.875, 595.393 387.018, 594.596 383.985 C 592.732 376.889, 588.935 366.732, 588.360 367.306 C 588.116 367.551, 588.389 370.619, 588.967 374.125 C 590.762 385.007, 591.315 403.946, 590.120 413.611 C 588.360 427.844, 586.477 431.396, 581.971 428.984 C 579.908 427.881, 579.809 427.418, 577.582 408.500 C 575.863 393.901, 572.524 380.068, 567.323 366 C 560.501 347.546, 550 331.143, 550 338.940 C 550 342.257, 544.939 355.189, 540.976 362 C 532.794 376.060, 512.779 390.800, 510.375 384.536 C 510.066 383.730, 511.853 379.793, 514.345 375.786 C 525.050 358.576, 529.056 346.673, 528.900 332.540 C 528.754 319.236, 528.676 319.080, 520 314.799 C 505.887 307.835, 469.353 302.201, 456.326 304.979 M 285.699 368.742 C 284.857 379.672, 281.591 395.210, 277.917 405.771 C 273.086 419.657, 273.186 418.472, 277.015 416.492 C 282.549 413.630, 289.824 406.057, 292.738 400.125 C 295.133 395.248, 295.500 393.304, 295.500 385.500 C 295.500 377.878, 295.101 375.658, 292.896 371 C 291.463 367.975, 289.398 364.415, 288.306 363.089 L 286.321 360.678 285.699 368.742 M 316.363 469.020 C 301.199 471.767, 289.802 478.210, 276.288 491.675 C 266.143 501.782, 263.717 505.732, 265.705 508.905 C 267.615 511.954, 270.877 511.070, 285.148 503.639 C 293.042 499.529, 302.650 495.173, 306.500 493.960 C 316.623 490.768, 329.174 490.925, 343.500 494.422 C 376.467 502.470, 391.746 503.502, 396.214 497.984 C 398.394 495.292, 398.552 488.968, 396.536 485.069 C 392.775 477.796, 384.057 474.167, 362.500 470.902 C 347.502 468.630, 323.843 467.665, 316.363 469.020 M 505.505 478.533 C 495.488 480.154, 486.651 484.029, 483.721 488.087 C 482.694 489.509, 481.619 492.434, 481.332 494.587 C 480.670 499.544, 483.511 503.492, 488.795 504.960 C 494.930 506.664, 509.493 506.116, 527.990 503.487 C 537.609 502.119, 548.859 501.012, 552.990 501.026 C 565.544 501.069, 575.795 505.501, 592.822 518.248 C 600.997 524.369, 602.882 524.975, 605.521 522.336 C 609.257 518.600, 603.535 508.458, 590.049 494.915 C 580.996 485.824, 575.340 482.391, 564.500 479.411 C 555.978 477.069, 518.047 476.504, 505.505 478.533 M 335.539 511.112 C 321.166 513.206, 306.369 519.648, 295.792 528.415 C 288.926 534.106, 286.442 537.288, 287.513 539.021 C 288.550 540.699, 289.661 540.152, 295.669 535 C 307.874 524.533, 326.483 517.267, 343.578 516.292 C 355.743 515.599, 361.496 516.777, 372.293 522.172 C 376.579 524.313, 380.516 525.799, 381.043 525.474 C 385.665 522.617, 373.111 514.191, 360.131 511.440 C 352.828 509.892, 344.660 509.783, 335.539 511.112 M 511.782 518.483 C 501.199 521.178, 489.762 528.187, 491.461 530.937 C 492.538 532.680, 494.378 532.206, 503.468 527.845 C 511.380 524.048, 512.963 523.652, 521.814 523.251 C 542.015 522.335, 562.467 529.759, 576.771 543.200 C 582.076 548.185, 584.213 548.816, 584.840 545.582 C 585.580 541.764, 568.851 528.903, 556.256 523.606 C 542.850 517.967, 522.852 515.664, 511.782 518.483 M 469.299 519.843 C 467.647 520.908, 465.290 526.131, 463.343 533.044 C 460.868 541.827, 460.850 573.643, 463.307 593.347 C 465.108 607.787, 466.065 611, 468.567 611 C 471.061 611, 471.218 608.685, 469.593 595.831 C 468.736 589.049, 467.743 575.850, 467.388 566.500 C 466.692 548.196, 467.592 538.956, 471.023 529.194 C 472.110 526.100, 473 522.814, 473 521.892 C 473 520.017, 470.863 518.834, 469.299 519.843 M 336 522.670 C 322.494 524.402, 309.199 530.112, 298.513 538.770 C 290.510 545.254, 288.467 548.136, 289.933 550.875 C 291.704 554.184, 294.674 553.420, 300.829 548.073 C 306.218 543.391, 317.460 536, 319.191 536 C 319.636 536, 320 537.745, 320 539.878 C 320 553.195, 333.373 561.965, 347.312 557.788 C 355.568 555.315, 361.030 546.053, 359.516 537.094 C 358.992 533.995, 359.150 533.002, 360.162 533.010 C 362.375 533.026, 371.064 537.474, 378.391 542.341 C 383.892 545.995, 385.658 546.718, 387.141 545.924 C 390.354 544.205, 389.274 541.263, 383.862 536.985 C 371.128 526.920, 350.642 520.793, 336 522.670 M 516.072 530.553 C 505.139 532.924, 485.740 543.094, 484.460 547.125 C 483.748 549.368, 485.517 552, 487.736 552 C 488.557 552, 492.439 550.006, 496.364 547.570 C 500.289 545.133, 505.895 542.202, 508.822 541.056 L 514.143 538.973 513.415 541.236 C 512.238 544.899, 512.764 552.642, 514.406 555.818 C 517.425 561.657, 524.919 565.989, 532 565.989 C 543.001 565.989, 552 556.629, 552 545.186 L 552 542.103 557.465 545.242 C 560.470 546.968, 566.336 551.445, 570.501 555.190 C 574.665 558.936, 578.473 562, 578.964 562 C 579.894 562, 583 559.213, 583 558.379 C 583 556.656, 579.502 551.796, 575.827 548.414 C 566.555 539.879, 552.636 532.304, 542.201 530.113 C 535.190 528.641, 524.023 528.829, 516.072 530.553 M 194 555.353 C 194 561.555, 196.019 573.073, 199.611 587.359 C 203.774 603.915, 205.931 615.580, 208.035 632.912 C 210.169 650.489, 212.695 661.522, 216.127 668.250 C 219.094 674.064, 227.722 682.868, 231.406 683.839 C 235.701 684.971, 238.197 684.196, 237.485 681.952 C 237.170 680.962, 236.064 675.280, 235.025 669.326 C 225.392 614.094, 224.918 611.836, 220.784 601.625 C 218.529 596.056, 215.626 587.252, 214.331 582.059 C 211.501 570.706, 208.518 565.301, 200.250 556.546 L 194 549.927 194 555.353 M 646.268 592.750 C 644.673 594.813, 642.097 598.750, 640.544 601.500 C 638.990 604.250, 636.188 608.665, 634.317 611.312 C 631.491 615.308, 630.575 618.018, 628.905 627.312 C 627.800 633.465, 625.546 644.125, 623.895 651 C 619.019 671.312, 615.900 686.234, 616.422 686.756 C 616.690 687.024, 618.889 686.083, 621.308 684.665 C 624.719 682.666, 626.504 680.564, 629.263 675.294 C 634.033 666.184, 635.370 661.125, 639.475 636.635 C 641.398 625.160, 644.282 610.760, 645.884 604.635 C 649.414 591.134, 649.906 589, 649.490 589 C 649.313 589, 647.863 590.688, 646.268 592.750 M 386.702 635.777 C 381.254 641.796, 377.864 656.045, 379.986 664 C 381.480 669.600, 389.873 678.301, 393.311 677.812 C 397.034 677.282, 396.644 673.578, 392.615 671.200 C 387.794 668.356, 385.857 664.128, 385.812 656.354 C 385.782 651.068, 386.354 648.724, 388.972 643.405 C 391.540 638.190, 391.932 636.623, 390.962 635.455 C 389.394 633.564, 388.653 633.620, 386.702 635.777 M 483.455 639.073 C 483.090 639.663, 483.999 642.834, 485.473 646.120 C 490.933 658.287, 489.656 667.552, 481.801 672.750 C 477.395 675.666, 477.121 678.338, 481.180 678.809 C 483.193 679.042, 484.932 678.066, 488.309 674.809 C 496.166 667.229, 496.857 657.030, 490.434 643.452 C 487.915 638.127, 485.123 636.375, 483.455 639.073 M 397.575 666.917 C 394.852 669.926, 396.947 672.608, 403.040 673.915 C 409.450 675.290, 413.293 677.274, 415.213 680.199 C 417.409 683.544, 423.104 688.964, 426.038 690.502 C 432.831 694.062, 446.283 693.974, 453.343 690.323 C 455.060 689.435, 458.498 686.513, 460.983 683.831 C 463.635 680.967, 468.183 677.618, 472 675.719 C 477.277 673.093, 478.500 672.036, 478.500 670.101 C 478.500 666.458, 475.958 665.399, 470.843 666.913 C 467.549 667.887, 464.563 670.180, 458.483 676.404 C 452.039 682.999, 449.544 684.868, 445.771 685.924 C 436.094 688.634, 428.194 685.284, 419.723 674.880 C 417.096 671.653, 413.176 668.110, 411.013 667.007 C 405.927 664.412, 399.879 664.371, 397.575 666.917 M 349.480 675.093 C 345.641 679.001, 338.900 684.724, 334.500 687.810 C 322.705 696.083, 313.982 705.193, 309.921 713.479 C 306.668 720.115, 306.500 720.989, 306.500 731.265 C 306.500 739.484, 306.838 742.282, 307.909 742.944 C 311.058 744.890, 311.844 743.038, 311.863 733.631 C 311.901 715.396, 316.899 707.581, 338.772 691.558 C 353.372 680.863, 362.217 669.877, 357.480 668.322 C 356.919 668.137, 353.319 671.184, 349.480 675.093 M 510.393 675.418 C 509.510 677.718, 518.129 689.737, 529.107 701.516 C 542.483 715.867, 545.274 721.495, 545.835 735.250 C 546.190 743.955, 546.432 745, 548.097 745 C 550.659 745, 551.324 741.626, 550.816 731.203 C 550.225 719.062, 546.177 711.520, 532.475 697.020 C 526.891 691.112, 520.384 683.515, 518.016 680.139 C 513.766 674.080, 511.456 672.649, 510.393 675.418 M 396.500 685.925 C 393.750 686.939, 387.146 689.804, 381.825 692.291 C 371.878 696.941, 368.482 698.085, 351.797 702.406 C 334.960 706.766, 327.225 712.221, 321.884 723.504 C 315.166 737.696, 315.278 757, 322.079 757 C 323.160 757, 325.997 755.200, 328.384 753 C 330.771 750.800, 333.467 749, 334.376 749 C 335.285 749, 338.538 746.956, 341.605 744.458 L 347.181 739.916 351.340 742.346 C 360.729 747.832, 378.517 751.250, 415 754.579 C 450.588 757.826, 490.053 753.890, 509.271 745.177 L 515.922 742.161 519.782 744.957 C 521.905 746.495, 525.318 750.279, 527.367 753.366 C 531.708 759.905, 534.094 761.555, 536.977 760.012 C 540.634 758.055, 541.499 754.988, 541.348 744.500 C 541.186 733.126, 539.187 726.039, 534.029 718.542 C 529.570 712.062, 522.557 707.860, 507.464 702.624 C 500.294 700.138, 489.494 695.776, 483.464 692.933 C 469.716 686.450, 466.610 686.216, 458.474 691.049 C 444.073 699.605, 437.891 700.185, 425.691 694.123 C 421.186 691.884, 415.475 688.944, 413 687.588 C 406.737 684.158, 402.462 683.728, 396.500 685.925 M 434.568 726.785 C 434.256 727.767, 432.110 730.025, 429.798 731.802 C 425.761 734.904, 425.255 735.026, 417.047 734.874 C 411.362 734.768, 406.491 735.309, 402.500 736.490 C 398.335 737.722, 393.288 738.247, 386 738.206 C 380.225 738.173, 374.150 738.409, 372.500 738.729 L 369.500 739.312 372.474 740.130 C 381.725 742.672, 423.601 747.001, 438.937 746.999 C 453.878 746.998, 488.115 743.300, 494.484 740.999 C 495.576 740.605, 490.626 740.044, 483.484 739.753 C 475.074 739.410, 468.915 738.640, 466 737.567 C 463.064 736.486, 460.192 736.131, 457.737 736.545 C 451.345 737.624, 438.997 731.718, 437.450 726.842 C 436.707 724.502, 435.302 724.474, 434.568 726.785 M 388.353 773.522 C 387.177 776.586, 389.437 778.428, 397.880 781.285 C 420.673 788.997, 450.519 788.499, 469.532 780.089 C 473.069 778.525, 474 777.602, 474 775.663 C 474 772.117, 471.971 771.843, 465.358 774.495 C 447.565 781.633, 418.259 781.818, 399.145 774.914 C 390.254 771.703, 389.108 771.555, 388.353 773.522 M 451.500 791.701 C 440.996 793.614, 422.687 793.778, 411.756 792.057 C 403.597 790.772, 402.877 790.801, 401.006 792.495 C 396.552 796.525, 400.328 801.947, 411.395 807.416 C 415.484 809.436, 419.324 811.685, 419.929 812.414 C 420.534 813.143, 423.776 814.972, 427.132 816.479 C 437.381 821.078, 445.268 818.542, 457.127 806.836 C 465.442 798.628, 467.056 795.056, 463.884 791.884 C 461.745 789.745, 462.203 789.752, 451.500 791.701 M 733 884.717 C 733 886.032, 744.298 902.400, 750.451 910 C 753.346 913.575, 761.066 922.359, 767.607 929.520 C 800.886 965.951, 804.729 970.540, 808.926 978.852 C 818.352 997.525, 813.867 1015.713, 782.507 1086 C 768.244 1117.969, 762.460 1131.817, 757.125 1146.773 C 753.576 1156.720, 747 1180.151, 747 1182.846 C 747 1183.705, 761.951 1184, 805.500 1184 L 864 1184 864 1078.129 L 864 972.259 855.458 963.184 C 837.343 943.941, 827.253 937.197, 758 898.043 C 748.925 892.912, 739.587 887.611, 737.250 886.262 C 734.913 884.913, 733 884.218, 733 884.717" stroke="none" fill="#050505" fill-rule="evenodd"/>
</svg>